# xmcd
#
# Track frame offsets: 
#        150
#        23250
#        43140
#        63467
#        85802
#        107510
#        128470
#        151372
#        171290
#        193550
#        219072
#        240682
#        262097
#        282177
#
# Disc length: 4043 seconds
#
# Revision: 5
# Processed by: cddbd v1.5.2PL0 Copyright (c) Steve Scherf et al.
# Submitted via: ExactAudioCopy v1.0b1
#
DISCID=b30fc90e
DTITLE=鄭秀文 - 愛情故事 Love Stories
DYEAR=2000
DGENRE=Pop
TTITLE0=愛情故事 Love Stories
TTITLE1=值得 Worth
TTITLE2=相逢不恨晚 Met But Not Too Late
TTITLE3=黑盒子 Black Box
TTITLE4=背叛 Betray
TTITLE5=缺席 Absent
TTITLE6=念念不忘 Can't Forget
TTITLE7=出界 Over the border
TTITLE8=癡癡為你等 Waiting for you
TTITLE9=決定 Decide
TTITLE10=承諾 Promise
TTITLE11=依靠 Depend On
TTITLE12=捨不得你 Can't Let you Go (Manadarin Version)
TTITLE13=我應該得到 I deserved
EXTD=YEAR: 2000
EXTT0=
EXTT1=
EXTT2=
EXTT3=
EXTT4=
EXTT5=
EXTT6=
EXTT7=
EXTT8=
EXTT9=
EXTT10=
EXTT11=
EXTT12=
EXTT13=
PLAYORDER=
